<svg width="24" height="24" viewBox="0 0 24 24" fill="none" xmlns="http://www.w3.org/2000/svg">
<path d="M11.0329 8.16057H12.6359C13.2441 8.14511 13.7692 8.50217 13.69 9.10644L13.1676 13.0838C13.0772 13.7728 14.1121 13.952 14.4564 13.0838C14.6663 12.5518 15.6884 12.7798 15.4663 13.6091C15.2801 14.3022 14.2372 15.0507 13.5871 15.0507H12.9468C11.9913 15.0131 11.166 14.1576 11.3177 13.0838L11.7652 9.88511L10.7969 9.59657C9.94385 9.36751 10.1161 8.13284 11.0329 8.16057ZM12.8191 4.67311C13.5164 4.67311 14.0815 5.23151 14.0815 5.91897C14.0815 6.60777 13.5164 7.16617 12.8191 7.16617C12.1207 7.16617 11.5553 6.60777 11.5553 5.91897C11.5553 5.23151 12.1207 4.67311 12.8191 4.67311ZM6.70945 2.34351C4.94705 2.34351 4.02759 6.65071 4.02759 12.0008C4.02759 17.3496 4.94679 21.6563 6.70945 21.6563H19.1999C20.1761 21.6563 20.2748 19.9134 19.2207 19.9134H9.40945C7.59132 19.9134 7.59132 17.4424 9.40945 17.4424H18.494C19.4303 17.4424 19.9497 16.2603 19.9497 15.1688L19.9524 4.70511C19.9524 3.39657 19.0345 2.34377 17.8956 2.34377L6.70945 2.34351Z" fill="#268AFF"/>
</svg>
