<svg width="24" height="23" viewBox="0 0 24 23" fill="none" xmlns="http://www.w3.org/2000/svg">
<path d="M5.81814 3.37934C2.92909 5.47836 1.48456 6.52787 0.917215 8.07814C0.871703 8.20251 0.830767 8.32849 0.794489 8.45586C0.342256 10.0435 0.894016 11.7417 1.99753 15.138C3.10105 18.5342 3.65281 20.2324 4.95189 21.251C5.0561 21.3327 5.16327 21.4106 5.27319 21.4845C5.7354 21.795 6.24486 22.0008 6.85417 22.1372V17.3046C6.85417 14.4627 9.15803 12.1588 12 12.1588C14.842 12.1588 17.1458 14.4627 17.1458 17.3046V22.1372C17.7551 22.0009 18.2646 21.795 18.7268 21.4845C18.8367 21.4106 18.9439 21.3327 19.0481 21.251C20.3472 20.2324 20.899 18.5342 22.0025 15.138C23.106 11.7417 23.6578 10.0435 23.2055 8.45586C23.1692 8.32849 23.1283 8.20251 23.0828 8.07814C22.5154 6.52787 21.0709 5.47837 18.1819 3.37936C15.2928 1.28034 13.8483 0.230817 12.1986 0.170298C12.0662 0.165443 11.9338 0.165443 11.8014 0.170298C10.1517 0.230817 8.70718 1.28033 5.81814 3.37934Z" fill="white"/>
<path fill-rule="evenodd" clip-rule="evenodd" d="M15.5208 22.3459V17.3046C15.5208 15.3601 13.9445 13.7838 12 13.7838C10.0555 13.7838 8.47917 15.3601 8.47917 17.3046V22.3459C9.42487 22.4052 10.5691 22.4052 12 22.4052C13.4309 22.4052 14.5751 22.4052 15.5208 22.3459ZM12.8125 17.3046C12.8125 16.8559 12.4487 16.4921 12 16.4921C11.5513 16.4921 11.1875 16.8559 11.1875 17.3046V19.4713C11.1875 19.92 11.5513 20.2838 12 20.2838C12.4487 20.2838 12.8125 19.92 12.8125 19.4713V17.3046Z" fill="white"/>
</svg>
