<svg width="24" height="26" viewBox="0 0 24 26" fill="none" xmlns="http://www.w3.org/2000/svg">
<path fill-rule="evenodd" clip-rule="evenodd" d="M12 8.93753C9.7563 8.93753 7.93746 10.7564 7.93746 13C7.93746 15.2437 9.7563 17.0625 12 17.0625C14.2436 17.0625 16.0625 15.2437 16.0625 13C16.0625 10.7564 14.2436 8.93753 12 8.93753ZM9.56246 13C9.56246 11.6538 10.6538 10.5625 12 10.5625C13.3462 10.5625 14.4375 11.6538 14.4375 13C14.4375 14.3462 13.3462 15.4375 12 15.4375C10.6538 15.4375 9.56246 14.3462 9.56246 13Z" fill="#44A244"/>
<path fill-rule="evenodd" clip-rule="evenodd" d="M15.6992 3.50167C14.6371 -0.219998 9.3628 -0.219996 8.30069 3.50167C7.97161 4.65477 6.78693 5.33874 5.62377 5.04718C1.86966 4.10617 -0.767497 8.67387 1.9245 11.4545C2.75858 12.3161 2.75858 13.684 1.9245 14.5455C-0.767498 17.3262 1.86966 21.8939 5.62377 20.9529C6.78693 20.6613 7.97161 21.3453 8.30069 22.4984C9.3628 26.2201 14.6371 26.2201 15.6992 22.4984C16.0283 21.3453 17.213 20.6613 18.3762 20.9529C22.1303 21.8939 24.7674 17.3262 22.0754 14.5455C21.2413 13.684 21.2413 12.3161 22.0754 11.4545C24.7674 8.67387 22.1303 4.10617 18.3762 5.04718C17.213 5.33874 16.0283 4.65477 15.6992 3.50167ZM9.8633 3.94761C10.4768 1.79802 13.5232 1.79802 14.1366 3.94761C14.7064 5.94402 16.7574 7.12821 18.7713 6.62342C20.9396 6.0799 22.4628 8.71815 20.9079 10.3242C19.4638 11.8158 19.4638 14.1842 20.9079 15.6758C22.4628 17.2819 20.9396 19.9202 18.7713 19.3766C16.7574 18.8719 14.7064 20.056 14.1366 22.0524C13.5232 24.202 10.4768 24.202 9.8633 22.0524C9.29355 20.056 7.24249 18.8719 5.22867 19.3766C3.06034 19.9202 1.53714 17.2819 3.09201 15.6758C4.53607 14.1842 4.53608 11.8158 3.09201 10.3242C1.53714 8.71815 3.06034 6.0799 5.22867 6.62342C7.24249 7.12821 9.29355 5.94402 9.8633 3.94761Z" fill="#44A244"/>
</svg>
